<?xml version="1.0" encoding="UTF-8" standalone="no"?>
<!DOCTYPE svg PUBLIC "-//W3C//DTD SVG 1.1//EN" "http://www.w3.org/Graphics/SVG/1.1/DTD/svg11.dtd">
<svg width="100%" height="100%" viewBox="0 0 1529 897" version="1.1" xmlns="http://www.w3.org/2000/svg" xmlns:xlink="http://www.w3.org/1999/xlink" xml:space="preserve" xmlns:serif="http://www.serif.com/" style="fill-rule:evenodd;clip-rule:evenodd;stroke-linejoin:round;stroke-miterlimit:2;">
    <g transform="matrix(1,0,0,1,-536,-454)">
        <g id="OpenEUICCBG">
            <path id="OpenEUICCSVG" d="M536.536,813.239C536.333,799.556 537.449,785.146 540.07,770.087L540.153,769.618C555.219,686.95 626.809,636.372 700.624,624.894C797.308,609.86 859.29,659.193 890.537,714.163C891.854,714.184 893.169,714.27 894.478,714.421L895.05,714.487L898.248,714.944L904.056,715.933L903.375,714.712C901.981,712.211 900.859,709.567 900.03,706.827L898.252,700.956C897.441,698.275 896.913,695.515 896.678,692.724L896.173,686.737C895.942,683.995 895.995,681.237 896.33,678.506C896.33,678.506 896.356,678.356 896.356,678.354C896.34,676.293 896.35,674.158 896.385,672.18L896.217,670.083C895.909,666.217 896.164,662.326 896.976,658.533L898.725,650.358C899.539,646.549 900.906,642.88 902.781,639.467L906.877,632.012C908.803,628.506 911.244,625.309 914.118,622.527L920.427,616.422C921.88,615.016 923.438,613.722 925.087,612.551L1070.48,509.323C1071.55,508.561 1072.66,507.853 1073.81,507.201L1078.77,504.366C1081.05,503.067 1083.45,501.994 1085.93,501.164L1091.31,499.37C1093.78,498.544 1096.33,497.962 1098.92,497.632L1104.54,496.916C1107.13,496.585 1109.76,496.51 1112.38,496.693L1118.08,497.091C1120.71,497.274 1123.31,497.717 1125.85,498.412L1131.37,499.921C1133.89,500.612 1136.35,501.551 1138.69,502.723L1143.76,505.255C1146.09,506.422 1148.31,507.814 1150.37,509.411L1154.85,512.879C1156.92,514.484 1158.83,516.289 1160.55,518.268L1164.3,522.584C1165.16,523.578 1165.97,524.613 1166.73,525.687L1187.07,554.371C1187.67,553.451 1188.29,552.541 1188.93,551.641C1204.06,530.421 1222.61,511.867 1243.83,496.738C1255.92,488.122 1269.89,483.206 1284.16,482.113C1298.42,481.019 1312.98,483.748 1326.24,490.421L1327.4,491.005L1328.12,489.918C1336.26,477.511 1347.51,467.868 1360.41,461.681C1366.86,458.589 1373.72,456.361 1380.82,455.083L1402.64,454.185C1428.59,456.676 1453.93,463.468 1477.64,474.281C1504.65,486.597 1522.62,512.855 1524.32,542.491L1524.39,543.789L1525.69,543.863C1527.51,543.968 1529.33,544.197 1531.12,544.549L1541.83,546.656C1543.63,547.009 1545.39,547.484 1547.12,548.078C1553.94,550.423 1560.39,553.671 1566.29,557.71C1572.19,561.75 1577.56,566.581 1582.21,572.089C1583.39,573.485 1584.47,574.96 1585.45,576.503L1591.3,585.728C1592.27,587.271 1593.14,588.878 1593.9,590.539C1604.71,614.251 1611.51,639.597 1614,665.538C1614.04,666.013 1614.08,670.473 1614.11,676.425C1614.66,676.516 1615.21,676.614 1615.76,676.717C1622.8,678.035 1629.65,680.295 1636.13,683.46C1637.77,684.262 1639.36,685.175 1640.87,686.194L1649.94,692.281C1651.46,693.299 1652.9,694.419 1654.26,695.634L1655.23,696.499L1656.2,695.634C1678.36,675.88 1709.63,670.018 1737.44,680.407C1761.85,689.528 1784.58,702.648 1804.68,719.229C1805.96,720.283 1807.17,721.415 1808.31,722.619L1815.12,729.826C1817.38,732.218 1819.33,734.879 1820.94,737.749L1825.7,746.248C1826.5,747.668 1827.2,749.135 1827.82,750.642C1830.28,756.64 1832,762.929 1832.94,769.368C1833.18,770.995 1833.32,772.634 1833.35,774.277L1833.5,780.947L1833.58,780.943L1833.58,784.984C1833.58,786.611 1833.48,788.216 1833.29,789.793C1833.25,792.629 1833.19,795.732 1833.12,798.888C1861.29,808.208 1881.99,832.353 1886.89,861.617C1889.17,875.193 1890.24,888.919 1890.11,902.617C1890.11,903.534 1890.12,905.339 1890.12,907.571C1912.02,906.503 1934.46,908.86 1956.42,914.38C1993.53,923.711 2025.76,942.33 2047,965.404L2048.59,967.195C2049.79,968.615 2050.89,970.116 2051.89,971.689L2055.78,977.823C2057.5,980.551 2058.89,983.478 2059.92,986.54L2061.87,992.378C2062.71,994.891 2063.3,997.481 2063.63,1000.11L2064.35,1005.86C2064.66,1008.4 2064.74,1010.97 2064.56,1013.52C2064.56,1013.52 2064.46,1014.76 2064.34,1016.21C2064.31,1031.38 2062.96,1065.08 2062.57,1066.62C2062.08,1068.58 2061.44,1070.49 2060.66,1072.35L2057.28,1080.4C2056.4,1082.5 2055.34,1084.52 2054.12,1086.44L2053.5,1087.38L2033.23,1117.86C2033.73,1119.16 2034.17,1120.5 2034.54,1121.88C2034.54,1121.88 2046.03,1164.4 2046.08,1164.58C2046.36,1165.64 2046.6,1166.72 2046.8,1167.81L2048.18,1175.58C2048.74,1178.71 2048.93,1181.88 2048.73,1185.05C2048.73,1185.05 2048.66,1186.1 2048.56,1187.35C2048.56,1201.13 2047.2,1237.58 2046.83,1239.06C2046.44,1240.58 2045.97,1242.08 2045.42,1243.54L2043.05,1249.76C2041.94,1252.68 2040.49,1255.45 2038.74,1258.03L2034.97,1263.57C2032.82,1266.73 2030.23,1269.56 2027.28,1271.98L2018.06,1279.55C2016.53,1280.81 2014.91,1281.95 2013.21,1282.97C1959.08,1315.35 1904.09,1320.87 1856.9,1309C1840.78,1304.95 1825.53,1298.85 1811.45,1291.02C1767.76,1332.79 1717.43,1350.45 1670.23,1350.45C1619.77,1350.45 1572.48,1330.34 1538.45,1296.02C1535.74,1297.66 1532.85,1298.98 1529.82,1299.94L1524.74,1301.55C1522.15,1302.38 1519.48,1302.94 1516.77,1303.22L1511.27,1303.79C1509.89,1303.94 1508.5,1304.01 1507.11,1304.01L1443.47,1304.01C1442.08,1304.01 1440.69,1303.94 1439.31,1303.79L1433.81,1303.22C1431.1,1302.94 1428.43,1302.38 1425.84,1301.55L1420.76,1299.94C1417.08,1298.77 1413.59,1297.07 1410.4,1294.9L1401.98,1289.18C1400.54,1288.2 1399.16,1287.13 1397.86,1285.97C1357.12,1328.06 1296.58,1342.84 1240.54,1333.13C1206.4,1327.21 1174.6,1312.23 1149.97,1289.62C1149.59,1289.74 1149.21,1289.85 1148.83,1289.96L1143.56,1291.43C1142.27,1291.79 1140.97,1292.09 1139.66,1292.32L1138.62,1292.49L1067.56,1303.64C1066.16,1304.02 1064.73,1304.32 1063.27,1304.54L1007.7,1313.12L1004.65,1313.51L1004.07,1313.57C1002.59,1313.72 1001.09,1313.79 999.598,1313.78L993.857,1313.72C990.969,1313.69 988.093,1313.35 985.278,1312.7L979.999,1311.48C976.234,1310.61 972.615,1309.2 969.254,1307.3L960.698,1302.44C956.626,1300.14 952.99,1297.13 949.957,1293.56L943.977,1286.53C941.012,1283.04 938.667,1279.07 937.045,1274.79L933.645,1265.82C932.807,1263.61 932.167,1261.33 931.732,1259L931.422,1257.19L910.096,1120.16L905.372,1120.45C903.044,1120.59 900.708,1120.52 898.391,1120.26L895.129,1119.79L838.271,1110.04C836.63,1109.76 835.03,1109.38 833.475,1108.91L831.916,1108.56C829.156,1107.93 826.471,1107.01 823.906,1105.81L819.231,1103.63C815.691,1101.98 812.411,1099.82 809.497,1097.21L802.283,1090.77C798.547,1087.43 795.471,1083.42 793.215,1078.95L788.899,1070.4C787.196,1067.02 785.98,1063.42 785.288,1059.7L784.37,1054.78C783.886,1052.18 783.66,1049.54 783.698,1046.89L783.77,1041.7C783.778,1041.17 783.796,1040.63 783.825,1040.1L783.773,1037.25C783.755,1036.28 783.773,1035.32 783.825,1034.36L783.773,1031.51C783.755,1030.54 783.773,1029.58 783.825,1028.62L783.773,1025.76C783.755,1024.8 783.773,1023.84 783.825,1022.87L783.798,1021.42C771.651,1025.96 759.457,1029.2 747.62,1031.04C650.746,1046.11 555.311,987.041 538.86,881.245C537.17,870.379 536.36,858.979 536.536,847.113C536.51,841.88 536.509,818.522 536.536,813.239ZM1747.57,1128.43L1746.11,1129.87L1746.55,1129.79L1747.57,1129.93C1747.57,1129.43 1747.57,1128.93 1747.57,1128.43ZM1725.91,1137.76C1726.11,1138.18 1726.32,1138.59 1726.52,1139C1726.88,1138.63 1727.25,1138.25 1727.6,1137.87L1727.25,1137.94L1725.91,1137.76ZM1186.12,735.525L1184.79,736.677L1179.35,740.53C1181.69,740.656 1183.97,740.843 1186.19,741.087C1186.16,740.711 1186.14,738.591 1186.12,735.525ZM904.625,695.316C900.099,689.396 897.181,682.157 896.548,674.224L896.496,673.569C897.027,682.963 900.236,690.019 904.625,695.316ZM543.965,836.24C539.416,829.87 536.686,822.105 536.543,813.698C536.686,823.387 539.677,830.711 543.965,836.24Z" style="fill:rgb(253,230,138);"/>
            <g id="OpenEUICCSVG1" serif:id="OpenEUICCSVG">
                <g id="Sim" transform="matrix(0.785112,1.10765,-1.10765,0.785112,658.755,-1281.43)">
                    <g transform="matrix(1.20427,0,2.22045e-16,1.44928,-38.8349,-460.554)">
                        <path d="M1109.4,779.255C1107.87,778.394 1106.09,777.339 1104.71,776.471L1104.7,776.469L1102.52,775.389L1099.06,772.262L1096.79,768.373L1095.97,763.963L1095.89,673.341L1096.23,670.449L1097.23,667.695L1098.86,665.155L1101.08,662.908L1103.78,661.065L1106.84,659.709L1110.15,658.872L1113.63,658.585L1182.83,658.585L1186.42,658.89L1189.83,659.779L1192.95,661.218C1192.95,661.218 1193.81,661.826 1193.81,661.828C1194.56,662.274 1202.69,667.135 1203.24,667.613L1220.41,682.619L1222.5,684.831L1224.03,687.308L1224.98,689.981L1225.3,692.779L1225.3,768.395L1224.94,771.356L1223.9,774.138L1222.26,776.646L1220.1,778.821L1217.48,780.615L1214.46,781.976L1211.12,782.84L1207.55,783.139L1121.26,783.139L1117.44,782.795L1113.89,781.807L1110.72,780.256C1110.72,780.256 1109.4,779.257 1109.4,779.255Z" style="fill:rgb(80,7,36);"/>
                    </g>
                    <g transform="matrix(1.20427,0,0,1.44928,-38.8349,-460.554)">
                        <path d="M1111.62,768.187C1109.62,767.502 1108.21,765.865 1108.2,763.955L1108.12,673.333C1108.12,672.118 1108.7,670.952 1109.73,670.092C1110.77,669.233 1112.17,668.75 1113.63,668.75L1182.83,668.75C1184.34,668.75 1185.79,669.264 1186.83,670.173C1186.83,670.173 1193.92,674.225 1194.37,674.617L1211.55,689.624C1212.52,690.475 1213.07,691.605 1213.07,692.779L1213.07,768.395C1213.07,770.925 1210.6,772.975 1207.55,772.975L1121.26,772.975C1119.63,772.975 1118.16,772.385 1117.15,771.447C1116.38,771.181 1112.17,768.698 1111.62,768.187Z" style="fill:rgb(190,24,93);"/>
                    </g>
                    <g transform="matrix(1.20427,0,1.11022e-16,1.44928,-38.8349,-460.554)">
                        <path d="M1204,685.179C1204.98,686.031 1205.52,687.16 1205.52,688.335L1205.52,763.951C1205.52,766.48 1203.05,768.531 1200.01,768.531L1113.72,768.531C1110.67,768.531 1108.21,766.483 1108.2,763.955C1108.19,747.298 1108.14,690.002 1108.12,673.333C1108.12,672.118 1108.7,670.952 1109.73,670.092C1110.77,669.233 1112.17,668.75 1113.63,668.75L1182.83,668.75C1184.34,668.75 1185.79,669.264 1186.83,670.173C1190.67,673.533 1200.27,681.919 1204,685.179Z" style="fill:rgb(244,63,94);"/>
                    </g>
                    <g transform="matrix(1,0,0,0.988468,-168.973,24.7553)">
                        <path d="M1544.17,513.37C1549.29,513.37 1553.44,517.568 1553.44,522.748L1553.44,613.249C1553.44,618.429 1549.29,622.628 1544.17,622.628C1527.95,622.628 1494.61,622.628 1478.39,622.628C1473.27,622.628 1469.12,618.429 1469.12,613.249L1469.12,522.748C1469.12,517.568 1473.27,513.37 1478.39,513.37L1544.17,513.37Z" style="fill:rgb(255,209,0);"/>
                    </g>
                    <g transform="matrix(1,0,0,0.988468,-168.973,24.7553)">
                        <path d="M1469.24,614.766C1469.16,614.272 1469.12,613.766 1469.12,613.249L1469.12,567.058L1522.19,513.37L1544.17,513.37C1549.29,513.37 1553.44,517.568 1553.44,522.748L1553.44,529.581L1469.24,614.766Z" style="fill:rgb(255,243,138);"/>
                    </g>
                    <g transform="matrix(1,-5.55112e-17,5.55112e-17,1,-676.337,255.223)">
                        <path d="M2010.77,311.863C2009.48,312.543 2003.51,316.132 2002.59,316.644C2001.38,317.313 1999.86,316.877 1999.19,315.671C1998.52,314.464 1998.96,312.941 2000.17,312.272C2000.92,311.854 2001.66,311.419 2002.4,310.979L2002.4,274.565C2002.4,273.185 2003.52,272.065 2004.9,272.065C2006.28,272.065 2007.4,273.185 2007.4,274.565L2007.4,308.007C2007.75,307.811 2008.1,307.621 2008.45,307.437C2011.52,305.821 2014.64,304.694 2017.95,304.671C2022.22,304.642 2026.42,306.561 2030.64,308.867L2030.64,274.565C2030.64,273.185 2031.76,272.065 2033.14,272.065C2034.52,272.065 2035.64,273.185 2035.64,274.565L2035.64,311.664C2039.1,313.557 2042.63,315.118 2046.37,315.118C2054.72,315.118 2061.73,308.414 2061.73,308.414C2062.83,307.579 2064.4,307.793 2065.23,308.891C2066.07,309.99 2065.86,311.56 2064.76,312.395C2064.76,312.395 2056.58,319.964 2046.45,320.118C2040.93,320.202 2035.72,317.467 2030.66,314.605C2026.4,312.193 2022.27,309.642 2017.99,309.671C2015.46,309.689 2013.12,310.633 2010.77,311.863ZM2002.4,351.73C1998.65,349.472 1994.72,347.293 1990.06,347.204C1983.86,347.085 1977.25,354.288 1977.25,354.288C1976.4,355.379 1974.83,355.578 1973.74,354.733C1972.65,353.888 1972.45,352.317 1973.3,351.226C1973.3,351.226 1981.5,342.039 1990.16,342.205C1995.95,342.316 2000.87,344.972 2005.52,347.774L2006.76,348.528C2010.47,350.797 2014.01,353.011 2017.99,353.038C2022.27,353.068 2026.4,350.517 2030.66,348.105C2035.72,345.243 2040.93,342.508 2046.45,342.592C2055.63,342.731 2064.52,348.783 2064.52,348.783C2065.62,349.618 2065.83,351.188 2064.99,352.286C2064.16,353.384 2062.59,353.598 2061.49,352.763C2061.49,352.763 2054.12,347.591 2046.37,347.591C2042.63,347.591 2039.1,349.153 2035.64,351.045L2035.64,388.469C2035.64,389.848 2034.52,390.969 2033.14,390.969C2031.76,390.969 2030.64,389.848 2030.64,388.469L2030.64,353.842C2026.42,356.148 2022.22,358.067 2017.95,358.038C2014.27,358.013 2010.83,356.574 2007.4,354.682L2007.4,388.469C2007.4,389.848 2006.28,390.969 2004.9,390.969C2003.52,390.969 2002.4,389.848 2002.4,388.469L2002.4,351.73ZM1973,310.59C1972.15,309.499 1972.35,307.927 1973.44,307.082C1974.53,306.237 1976.11,306.436 1976.95,307.527C1976.95,307.527 1982.05,313.224 1985.65,314.67C1986.93,315.185 1987.55,316.642 1987.03,317.922C1986.52,319.202 1985.06,319.824 1983.78,319.309C1978.86,317.332 1973,310.59 1973,310.59Z" style="fill:rgb(154,78,3);"/>
                    </g>
                </g>
                <g id="Cogs">
                    <g transform="matrix(0.866025,-0.5,0.5,0.866025,474.873,622.613)">
                        <path d="M713.5,735.152L713.524,735.11C719.147,725.132 725.647,715.652 732.959,706.786C742.403,695.336 757.41,690.056 771.943,693.07C771.943,693.07 789.986,696.813 800.929,699.083C801.619,698.652 802.312,698.226 803.008,697.805L805.605,689.944C806.386,687.579 822.308,659.429 823.248,658.126L821.227,661.626L826.328,653.226C828.346,650.673 830.664,648.38 833.228,646.395L841.6,641.415L851.099,638.578C872.424,635.004 894.196,635.004 915.521,638.578C922.84,639.805 929.518,643.007 934.949,647.664C937.664,649.993 940.067,652.685 942.082,655.676L946.891,665.481C946.891,665.481 952.671,682.978 956.177,693.59C959.412,695.309 962.585,697.141 965.69,699.083L994.677,693.07C1009.21,690.056 1024.22,695.336 1033.66,706.786C1047.42,723.467 1058.3,742.322 1065.87,762.577L1068.16,772.222L1068.04,781.962C1067.6,785.174 1066.77,788.329 1065.57,791.353L1060.85,799.971L1062.87,796.471C1062.21,797.936 1045.79,825.8 1044.13,827.659C1044.13,827.659 1041.84,830.237 1038.62,833.837C1038.61,834.651 1038.59,835.465 1038.56,836.277L1058.26,858.374C1068.13,869.453 1071.07,885.089 1065.87,898.993C1061.85,909.77 1056.88,920.151 1051.05,930.004C1049.68,932.395 1040.32,948.617 1039,950.881C1033.37,960.874 1026.86,970.368 1019.54,979.247C1010.09,990.697 995.086,995.977 980.553,992.963C980.553,992.963 962.509,989.22 951.566,986.95C950.877,987.381 950.184,987.807 949.488,988.227L946.891,996.089L941.354,1006.94L943.375,1003.44C942.724,1004.89 930.161,1026.64 929.248,1027.91L931.269,1024.41L926.168,1032.81C924.15,1035.36 921.832,1037.65 919.268,1039.64L910.896,1044.62L901.397,1047.45C880.072,1051.03 858.3,1051.03 836.975,1047.45C822.337,1045 810.261,1034.64 805.605,1020.55C805.605,1020.55 799.825,1003.05 796.319,992.442C793.084,990.724 789.911,988.892 786.806,986.95L757.819,992.963C743.286,995.977 728.279,990.697 718.836,979.247C705.078,962.565 694.192,943.711 686.625,923.456L684.332,913.811L684.459,904.07C684.896,900.858 685.722,897.704 686.924,894.679L691.649,886.062L689.629,889.562C690.268,888.138 702.827,866.381 703.755,865.094L701.735,868.593L708.362,858.374C708.362,858.374 710.661,855.796 713.872,852.195C713.888,851.382 713.91,850.568 713.939,849.755L694.238,827.659L688.151,818.592C686.569,815.351 685.439,811.924 684.78,808.409C684.121,804.893 683.933,801.289 684.234,797.696L686.625,787.04C690.651,776.263 695.618,765.881 701.447,756.028C702.804,753.652 712.07,737.603 713.5,735.152Z" style="fill:rgb(80,7,36);"/>
                    </g>
                    <g transform="matrix(0.866025,-0.5,0.5,0.866025,474.873,622.613)">
                        <path d="M730.855,745.094C735.921,736.08 741.787,727.517 748.389,719.511C753.111,713.786 760.614,711.146 767.881,712.653C767.881,712.653 805.047,720.363 805.047,720.363C809.701,717.064 814.558,714.064 819.587,711.38L824.596,696.218C825.246,694.249 838.687,670.91 839.469,669.825C842.19,663.773 847.771,659.415 854.405,658.303C873.541,655.096 893.078,655.096 912.215,658.303C919.534,659.53 925.572,664.708 927.9,671.754C927.9,671.754 939.807,707.796 939.806,707.796C947.436,711.301 954.723,715.508 961.573,720.363L998.739,712.653C1006,711.146 1013.51,713.786 1018.23,719.511C1030.58,734.481 1040.35,751.4 1047.14,769.577C1049.49,775.877 1048.51,782.89 1044.62,788.272C1044.08,789.492 1030.59,812.801 1029.21,814.349C1029.21,814.349 1024.16,820.008 1018.58,826.268C1018.77,831.965 1018.6,837.671 1018.07,843.351L1043.33,871.684C1048.27,877.223 1049.73,885.041 1047.14,891.993C1043.5,901.713 1039.02,911.074 1033.75,919.97C1033.09,921.142 1022.33,939.781 1021.64,940.938C1016.57,949.953 1010.71,958.516 1004.11,966.522C999.385,972.247 991.882,974.887 984.615,973.379C984.615,973.379 947.449,965.67 947.449,965.67C942.795,968.969 937.938,971.969 932.909,974.653L927.9,989.815C927.25,991.784 926.31,993.607 925.133,995.239C924.575,996.48 913.809,1015.12 913.027,1016.21C910.306,1022.26 904.725,1026.62 898.091,1027.73C878.955,1030.94 859.418,1030.94 840.281,1027.73C832.962,1026.5 826.924,1021.33 824.596,1014.28C824.596,1014.28 812.689,978.237 812.69,978.237C805.06,974.732 797.773,970.525 790.923,965.67L753.757,973.379C746.49,974.887 738.987,972.247 734.265,966.522C721.919,951.552 712.151,934.633 705.36,916.456C703.006,910.155 703.989,903.143 707.871,897.761C708.419,896.541 719.181,877.895 719.977,876.792C720.802,874.957 721.91,873.231 723.29,871.684C723.29,871.684 728.336,866.024 733.917,859.765C733.727,854.068 733.897,848.362 734.426,842.681L709.167,814.349C704.228,808.81 702.763,800.992 705.36,794.04C708.992,784.319 713.475,774.958 718.748,766.063C719.408,764.89 730.169,746.252 730.855,745.094ZM847.058,755.4C844.88,760.245 840.846,764.055 835.817,765.934C825.907,769.636 816.683,774.962 808.522,781.692C803.845,785.549 797.671,787.077 791.735,785.846C791.735,785.846 778.919,783.187 769.09,781.148L784.48,798.411C788.515,802.936 790.279,809.047 789.277,815.026C787.528,825.459 787.528,836.11 789.277,846.543C790.164,851.838 788.882,857.237 785.775,861.545C785.225,862.768 771.731,886.08 770.356,887.622C770.356,887.622 767.776,890.516 764.346,894.363C766.704,898.775 769.307,903.055 772.143,907.181L805.859,900.187C807.17,899.915 808.493,899.778 809.809,899.77C800.487,887.364 794.962,871.946 794.962,855.248C794.962,841.044 798.96,827.767 805.891,816.481C806.533,815.297 815.277,800.152 815.98,799.008C816.622,797.823 817.294,796.658 817.998,795.513C830.557,772.324 855.107,756.56 883.31,756.56C886.308,756.56 889.264,756.738 892.169,757.085C891.522,755.946 890.983,754.738 890.565,753.472L879.763,720.776C874.772,720.384 869.765,720.269 864.764,720.433L861.931,729.009C861.284,730.97 847.842,754.313 847.058,755.4ZM860.327,928.948C860.974,930.086 861.513,931.295 861.931,932.561C861.931,932.561 872.733,965.256 872.733,965.256C877.724,965.649 882.731,965.763 887.732,965.599L890.565,957.024C891.212,955.063 902.636,935.215 903.42,934.127C903.976,932.89 904.654,931.72 905.438,930.633C907.616,925.788 911.65,921.978 916.679,920.099C926.589,916.397 935.813,911.071 943.974,904.341C948.651,900.483 954.825,898.956 960.761,900.187C960.761,900.187 973.577,902.845 983.406,904.884L968.016,887.622C963.981,883.096 962.217,876.986 963.219,871.006C964.968,860.574 964.968,849.922 963.219,839.489C962.332,834.194 963.614,828.796 966.721,824.487C967.27,823.265 980.765,799.952 982.14,798.411C982.14,798.411 984.72,795.516 988.15,791.67C985.791,787.257 983.189,782.978 980.353,778.852L946.637,785.846C945.326,786.118 944.003,786.255 942.687,786.263C952.008,798.669 957.534,814.087 957.534,830.785C957.534,844.989 953.536,858.266 946.605,869.552C945.963,870.736 935.201,889.375 934.498,890.52C921.939,913.709 897.389,929.472 869.186,929.472C866.188,929.472 863.232,929.294 860.327,928.948ZM903.248,858.597C903.356,857.495 903.411,856.378 903.411,855.248C903.411,836.359 888.075,821.024 869.186,821.024C861.749,821.024 854.864,823.401 849.248,827.436C849.14,828.538 849.085,829.655 849.085,830.785C849.085,849.674 864.421,865.009 883.31,865.009C890.747,865.009 897.632,862.632 903.248,858.597Z" style="fill:rgb(190,24,93);"/>
                    </g>
                    <g transform="matrix(0.707107,-0.707107,0.707107,0.707107,168.138,725.137)">
                        <path d="M792.854,697.408L795.347,689.863C797.63,682.952 801.697,676.94 806.966,672.326C811.488,667.744 823.043,656.19 827.618,651.675C833.598,644.848 841.835,640.131 851.099,638.578C872.424,635.004 894.196,635.004 915.521,638.578C922.84,639.805 929.518,643.007 934.949,647.664C940.38,652.322 944.563,658.434 946.891,665.481C946.891,665.481 952.671,682.978 956.177,693.59C959.412,695.309 962.585,697.141 965.69,699.083L994.677,693.07C1009.21,690.056 1024.22,695.336 1033.66,706.786C1047.42,723.467 1058.3,742.322 1065.87,762.577C1071.07,776.48 1068.13,792.117 1058.26,803.195C1058.26,803.195 1046,816.95 1038.56,825.292C1038.69,828.953 1038.69,832.617 1038.56,836.277L1058.26,858.374L1064.35,867.441C1065.93,870.682 1067.06,874.109 1067.72,877.624C1068.38,881.14 1068.56,884.743 1068.26,888.337L1065.87,898.993C1058.3,919.248 1047.42,938.102 1033.66,954.784C1032.84,955.781 1007.48,981.175 1006.61,981.916L1008.83,979.7L1000.82,986.853C997.886,988.839 994.707,990.418 991.376,991.559C988.045,992.699 984.563,993.401 981.02,993.632L970.295,992.882C970.295,992.882 959.382,990.618 949.383,988.544L946.891,996.089C944.608,1003 940.54,1009.01 935.271,1013.63C930.749,1018.21 919.195,1029.76 914.619,1034.28C908.64,1041.1 900.402,1045.82 891.138,1047.37C869.813,1050.95 848.042,1050.95 826.717,1047.37L816.293,1044.12C813.03,1042.58 810.003,1040.62 807.288,1038.29C804.573,1035.96 802.17,1033.27 800.155,1030.28L795.347,1020.47C795.347,1020.47 789.566,1002.97 786.061,992.362C782.825,990.643 779.652,988.811 776.547,986.869L747.56,992.882C733.028,995.896 718.02,990.616 708.577,979.166C694.819,962.485 683.934,943.63 676.366,923.375L673.976,912.719C673.674,909.126 673.862,905.522 674.521,902.007C675.18,898.491 676.31,895.064 677.892,891.823L683.98,882.757C683.98,882.757 696.243,869.002 703.68,860.66C703.551,856.999 703.551,853.335 703.68,849.675L683.98,827.578C679.041,822.039 675.839,815.36 674.521,808.328C673.862,804.813 673.674,801.209 673.976,797.615L676.366,786.959C683.934,766.704 694.819,747.85 708.577,731.168C709.4,730.171 734.757,704.777 735.624,704.036L733.408,706.252L741.413,699.099C744.352,697.113 747.531,695.534 750.861,694.393C754.192,693.253 757.674,692.552 761.217,692.32L771.943,693.07C771.943,693.07 782.855,695.334 792.854,697.408Z" style="fill:rgb(46,16,101);"/>
                    </g>
                    <g transform="matrix(0.707107,-0.707107,0.707107,0.707107,168.138,725.137)">
                        <path d="M748.614,719.244C753.347,713.704 760.728,711.17 767.881,712.653C767.881,712.653 805.047,720.363 805.047,720.363C805.601,719.97 806.159,719.581 806.719,719.196L814.337,696.137C815.505,692.601 817.607,689.536 820.336,687.205C821.017,686.408 841.707,665.718 842.502,665.039C845.504,661.524 849.689,659.093 854.405,658.303C873.541,655.096 893.078,655.096 912.215,658.303C919.534,659.53 925.572,664.708 927.9,671.754C927.9,671.754 939.807,707.796 939.806,707.796C947.436,711.301 954.723,715.508 961.573,720.363L998.739,712.653C1006,711.146 1013.51,713.786 1018.23,719.511C1030.58,734.481 1040.35,751.4 1047.14,769.577C1049.73,776.528 1048.27,784.347 1043.33,789.886C1043.33,789.886 1018.07,818.218 1018.07,818.218C1018.85,826.578 1018.85,834.992 1018.07,843.351L1043.33,871.684C1048.27,877.223 1049.73,885.041 1047.14,891.993C1040.35,910.169 1030.58,927.089 1018.23,942.058C1017.48,942.965 994.412,966.035 993.624,966.709C988.891,972.248 981.509,974.782 974.357,973.299C974.357,973.299 937.19,965.589 937.191,965.589C936.636,965.982 936.078,966.371 935.518,966.756L927.9,989.815C926.732,993.351 924.63,996.416 921.901,998.747C921.221,999.544 900.53,1020.23 899.735,1020.91C896.733,1024.43 892.549,1026.86 887.833,1027.65C868.696,1030.86 849.159,1030.86 830.022,1027.65C822.703,1026.42 816.665,1021.24 814.337,1014.2C814.337,1014.2 802.431,978.156 802.431,978.156C794.801,974.651 787.514,970.444 780.665,965.589L743.498,973.299C736.232,974.806 728.728,972.166 724.007,966.441C711.661,951.471 701.892,934.552 695.101,916.375C692.504,909.424 693.969,901.605 698.908,896.066C698.908,896.066 724.168,867.734 724.168,867.734C723.388,859.374 723.388,850.96 724.168,842.601L698.908,814.268C693.969,808.729 692.504,800.911 695.101,793.959C701.892,775.783 711.661,758.863 724.007,743.894C724.754,742.987 747.825,719.917 748.614,719.244ZM833.765,760.108C831.587,762.657 828.777,764.65 825.558,765.853C815.649,769.555 806.425,774.881 798.264,781.611C793.587,785.469 787.412,786.996 781.476,785.765C781.476,785.765 777.01,784.839 771.329,783.66L784.48,798.411C788.515,802.936 790.279,809.047 789.277,815.026C788.162,821.677 787.758,828.416 788.065,835.131C791.678,822.344 798.662,810.966 807.996,802.019C808.719,801.265 829.407,780.576 830.162,779.853C843.287,766.161 861.644,757.524 882.006,757.169C881.316,755.983 880.744,754.718 880.306,753.391L869.505,720.696C867.929,720.572 866.351,720.475 864.773,720.407L861.931,729.009C860.771,732.521 858.677,735.596 855.931,737.942C855.252,738.738 854.51,739.479 853.715,740.159C853.035,740.954 834.561,759.428 833.765,760.108ZM785.595,861.791C785.245,862.261 784.874,862.717 784.48,863.158C784.48,863.158 761.565,888.86 761.566,888.861C764.606,895.235 768.143,901.36 772.143,907.181L801.408,901.11C792.625,890.132 786.917,876.589 785.595,861.791ZM860.232,928.783C860.921,929.969 861.493,931.234 861.931,932.561C861.931,932.561 872.733,965.256 872.733,965.256C874.309,965.38 875.886,965.477 877.464,965.545L880.306,956.943C881.466,953.431 883.56,950.356 886.306,948.01C886.986,947.214 907.676,926.524 908.472,925.844C910.65,923.295 913.461,921.302 916.679,920.099C926.589,916.397 935.813,911.071 943.974,904.341C948.651,900.483 954.825,898.956 960.761,900.187C960.761,900.187 965.227,901.113 970.908,902.292L957.757,887.541C953.723,883.016 951.959,876.905 952.961,870.926C954.075,864.275 954.479,857.536 954.173,850.821C950.559,863.608 943.575,874.986 934.242,883.933C933.518,884.688 912.83,905.376 912.076,906.099C898.951,919.791 880.593,928.428 860.232,928.783ZM956.642,824.161C956.992,823.691 957.364,823.235 957.757,822.794C957.757,822.794 980.672,797.092 980.672,797.091C977.631,790.717 974.095,784.592 970.095,778.771L940.829,784.842C949.612,795.82 955.32,809.363 956.642,824.161ZM891.538,863.396C892.202,860.762 892.554,858.006 892.554,855.167C892.554,836.608 877.487,821.541 858.927,821.541C856.089,821.541 853.333,821.893 850.699,822.556C850.036,825.19 849.683,827.947 849.683,830.785C849.683,849.344 864.751,864.412 883.31,864.412C886.148,864.412 888.905,864.059 891.538,863.396Z" style="fill:rgb(91,33,182);"/>
                    </g>
                    <g transform="matrix(0.866025,-0.5,0.5,0.866025,474.873,622.613)">
                        <path d="M927.9,671.754C927.9,671.754 939.807,707.796 939.806,707.796C947.436,711.301 954.723,715.508 961.573,720.363L998.739,712.653C1006,711.146 1013.51,713.786 1018.23,719.511C1030.58,734.481 1040.35,751.4 1047.14,769.577C1049.73,776.528 1048.27,784.347 1043.33,789.886C1043.33,789.886 1018.07,818.218 1018.07,818.218C1018.85,826.578 1018.85,834.992 1018.07,843.351L1043.33,871.684C1048.27,877.223 1049.73,885.041 1047.14,891.993C1040.35,910.169 1030.58,927.089 1018.23,942.058C1013.51,947.784 1006,950.424 998.739,948.916C998.739,948.916 961.573,941.207 961.573,941.207C954.723,946.062 947.436,950.269 939.807,953.773L927.9,989.815C925.572,996.862 919.534,1002.04 912.215,1003.27C893.078,1006.47 873.541,1006.47 854.405,1003.27C847.086,1002.04 841.047,996.862 838.72,989.815C838.72,989.815 826.813,953.774 826.813,953.774C819.184,950.269 811.896,946.062 805.047,941.207L767.881,948.916C760.614,950.424 753.111,947.784 748.389,942.058C736.043,927.089 726.275,910.169 719.484,891.993C716.886,885.041 718.352,877.223 723.29,871.684C723.29,871.684 748.55,843.351 748.55,843.352C747.771,834.992 747.771,826.577 748.55,818.218L723.29,789.886C718.352,784.347 716.886,776.528 719.484,769.577C726.275,751.4 736.043,734.481 748.389,719.511C753.111,713.786 760.614,711.146 767.881,712.653C767.881,712.653 805.047,720.363 805.047,720.363C811.897,715.508 819.184,711.301 826.813,707.796L838.72,671.754C841.047,664.708 847.086,659.53 854.405,658.303C873.541,655.096 893.078,655.096 912.215,658.303C919.534,659.53 925.572,664.708 927.9,671.754ZM893.887,696.313C886.847,695.759 879.773,695.759 872.733,696.313L861.931,729.009C860.03,734.765 855.62,739.349 849.941,741.47C840.031,745.173 830.807,750.498 822.646,757.229C817.969,761.086 811.795,762.614 805.859,761.383C805.859,761.383 772.143,754.389 772.142,754.389C768.143,760.209 764.606,766.335 761.565,772.709L784.48,798.411C788.515,802.936 790.279,809.047 789.277,815.026C787.528,825.459 787.528,836.11 789.277,846.543C790.279,852.522 788.515,858.633 784.48,863.158C784.48,863.158 761.565,888.86 761.566,888.861C764.606,895.235 768.143,901.36 772.143,907.181L805.859,900.187C811.795,898.956 817.969,900.483 822.646,904.341C830.807,911.071 840.031,916.397 849.941,920.099C855.62,922.221 860.03,926.804 861.931,932.561C861.931,932.561 872.733,965.256 872.733,965.256C879.773,965.81 886.846,965.81 893.887,965.256L904.688,932.561C906.59,926.804 911,922.221 916.679,920.099C926.589,916.397 935.813,911.071 943.974,904.341C948.651,900.483 954.825,898.956 960.761,900.187C960.761,900.187 994.477,907.181 994.477,907.181C998.477,901.36 1002.01,895.235 1005.05,888.86L982.14,863.158C978.105,858.633 976.341,852.522 977.343,846.543C979.091,836.11 979.091,825.459 977.343,815.026C976.341,809.047 978.105,802.936 982.14,798.411C982.14,798.411 1005.05,772.709 1005.05,772.709C1002.01,766.335 998.477,760.209 994.477,754.389L960.761,761.383C954.825,762.614 948.651,761.086 943.974,757.229C935.813,750.498 926.589,745.173 916.679,741.47C911,739.349 906.59,734.765 904.688,729.009L893.887,696.313ZM883.31,756.56C924.275,756.56 957.534,789.819 957.534,830.785C957.534,871.75 924.275,905.009 883.31,905.009C842.344,905.009 809.085,871.75 809.085,830.785C809.085,789.819 842.344,756.56 883.31,756.56ZM883.31,796.56C864.421,796.56 849.085,811.896 849.085,830.785C849.085,849.674 864.421,865.009 883.31,865.009C902.199,865.009 917.534,849.674 917.534,830.785C917.534,811.896 902.199,796.56 883.31,796.56Z" style="fill:rgb(251,113,133);"/>
                    </g>
                    <g transform="matrix(0.866025,-0.5,0.5,0.866025,474.873,622.613)">
                        <path d="M927.9,671.754C927.9,671.754 939.807,707.796 939.806,707.796C947.436,711.301 954.723,715.508 961.573,720.363L998.739,712.653C1006,711.146 1013.51,713.786 1018.23,719.511C1030.58,734.481 1040.35,751.4 1047.14,769.577C1049.73,776.528 1048.27,784.347 1043.33,789.886C1043.33,789.886 1018.07,818.218 1018.07,818.218C1018.85,826.578 1018.85,834.992 1018.07,843.351L1043.33,871.684C1048.27,877.223 1049.73,885.041 1047.14,891.993C1040.35,910.169 1030.58,927.089 1018.23,942.058C1013.51,947.784 1006,950.424 998.739,948.916C998.739,948.916 961.573,941.207 961.573,941.207C954.723,946.062 947.436,950.269 939.807,953.773L927.9,989.815C925.572,996.862 919.534,1002.04 912.215,1003.27C893.078,1006.47 873.541,1006.47 854.405,1003.27C847.086,1002.04 841.047,996.862 838.72,989.815C838.72,989.815 826.813,953.774 826.813,953.774C819.184,950.269 811.896,946.062 805.047,941.207L767.881,948.916C760.614,950.424 753.111,947.784 748.389,942.058C736.043,927.089 726.275,910.169 719.484,891.993C716.886,885.041 718.352,877.223 723.29,871.684C723.29,871.684 748.55,843.351 748.55,843.352C747.771,834.992 747.771,826.577 748.55,818.218L723.29,789.886C718.352,784.347 716.886,776.528 719.484,769.577C726.275,751.4 736.043,734.481 748.389,719.511C753.111,713.786 760.614,711.146 767.881,712.653C767.881,712.653 805.047,720.363 805.047,720.363C811.897,715.508 819.184,711.301 826.813,707.796L838.72,671.754C841.047,664.708 847.086,659.53 854.405,658.303C873.541,655.096 893.078,655.096 912.215,658.303C919.534,659.53 925.572,664.708 927.9,671.754ZM893.887,696.313C886.847,695.759 879.773,695.759 872.733,696.313L861.931,729.009C860.03,734.765 855.62,739.349 849.941,741.47C840.031,745.173 830.807,750.498 822.646,757.229C817.969,761.086 811.795,762.614 805.859,761.383C805.859,761.383 772.143,754.389 772.142,754.389C768.143,760.209 764.606,766.335 761.565,772.709L784.48,798.411C788.515,802.936 790.279,809.047 789.277,815.026C787.528,825.459 787.528,836.11 789.277,846.543C790.279,852.522 788.515,858.633 784.48,863.158C784.48,863.158 761.565,888.86 761.566,888.861C764.606,895.235 768.143,901.36 772.143,907.181L805.859,900.187C811.795,898.956 817.969,900.483 822.646,904.341C830.807,911.071 840.031,916.397 849.941,920.099C855.62,922.221 860.03,926.804 861.931,932.561C861.931,932.561 872.733,965.256 872.733,965.256C879.773,965.81 886.846,965.81 893.887,965.256L904.688,932.561C906.59,926.804 911,922.221 916.679,920.099C926.589,916.397 935.813,911.071 943.974,904.341C948.651,900.483 954.825,898.956 960.761,900.187C960.761,900.187 994.477,907.181 994.477,907.181C998.477,901.36 1002.01,895.235 1005.05,888.86L982.14,863.158C978.105,858.633 976.341,852.522 977.343,846.543C979.091,836.11 979.091,825.459 977.343,815.026C976.341,809.047 978.105,802.936 982.14,798.411C982.14,798.411 1005.05,772.709 1005.05,772.709C1002.01,766.335 998.477,760.209 994.477,754.389L960.761,761.383C954.825,762.614 948.651,761.086 943.974,757.229C935.813,750.498 926.589,745.173 916.679,741.47C911,739.349 906.59,734.765 904.688,729.009L893.887,696.313ZM883.31,756.56C924.275,756.56 957.534,789.819 957.534,830.785C957.534,871.75 924.275,905.009 883.31,905.009C842.344,905.009 809.085,871.75 809.085,830.785C809.085,789.819 842.344,756.56 883.31,756.56ZM883.31,796.56C864.421,796.56 849.085,811.896 849.085,830.785C849.085,849.674 864.421,865.009 883.31,865.009C902.199,865.009 917.534,849.674 917.534,830.785C917.534,811.896 902.199,796.56 883.31,796.56Z" style="fill:rgb(251,113,133);"/>
                    </g>
                    <g transform="matrix(0.707107,-0.707107,0.707107,0.707107,168.138,725.137)">
                        <path d="M927.9,671.754C927.9,671.754 939.807,707.796 939.806,707.796C947.436,711.301 954.723,715.508 961.573,720.363L998.739,712.653C1006,711.146 1013.51,713.786 1018.23,719.511C1030.58,734.481 1040.35,751.4 1047.14,769.577C1049.73,776.528 1048.27,784.347 1043.33,789.886C1043.33,789.886 1018.07,818.218 1018.07,818.218C1018.85,826.578 1018.85,834.992 1018.07,843.351L1043.33,871.684C1048.27,877.223 1049.73,885.041 1047.14,891.993C1040.35,910.169 1030.58,927.089 1018.23,942.058C1013.51,947.784 1006,950.424 998.739,948.916C998.739,948.916 961.573,941.207 961.573,941.207C954.723,946.062 947.436,950.269 939.807,953.773L927.9,989.815C925.572,996.862 919.534,1002.04 912.215,1003.27C893.078,1006.47 873.541,1006.47 854.405,1003.27C847.086,1002.04 841.047,996.862 838.72,989.815C838.72,989.815 826.813,953.774 826.813,953.774C819.184,950.269 811.896,946.062 805.047,941.207L767.881,948.916C760.614,950.424 753.111,947.784 748.389,942.058C736.043,927.089 726.275,910.169 719.484,891.993C716.886,885.041 718.352,877.223 723.29,871.684C723.29,871.684 748.55,843.351 748.55,843.352C747.771,834.992 747.771,826.577 748.55,818.218L723.29,789.886C718.352,784.347 716.886,776.528 719.484,769.577C726.275,751.4 736.043,734.481 748.389,719.511C753.111,713.786 760.614,711.146 767.881,712.653C767.881,712.653 805.047,720.363 805.047,720.363C811.897,715.508 819.184,711.301 826.813,707.796L838.72,671.754C841.047,664.708 847.086,659.53 854.405,658.303C873.541,655.096 893.078,655.096 912.215,658.303C919.534,659.53 925.572,664.708 927.9,671.754ZM893.887,696.313C886.847,695.759 879.773,695.759 872.733,696.313L861.931,729.009C860.03,734.765 855.62,739.349 849.941,741.47C840.031,745.173 830.807,750.498 822.646,757.229C817.969,761.086 811.795,762.614 805.859,761.383C805.859,761.383 772.143,754.389 772.142,754.389C768.143,760.209 764.606,766.335 761.565,772.709L784.48,798.411C788.515,802.936 790.279,809.047 789.277,815.026C787.528,825.459 787.528,836.11 789.277,846.543C790.279,852.522 788.515,858.633 784.48,863.158C784.48,863.158 761.565,888.86 761.566,888.861C764.606,895.235 768.143,901.36 772.143,907.181L805.859,900.187C811.795,898.956 817.969,900.483 822.646,904.341C830.807,911.071 840.031,916.397 849.941,920.099C855.62,922.221 860.03,926.804 861.931,932.561C861.931,932.561 872.733,965.256 872.733,965.256C879.773,965.81 886.846,965.81 893.887,965.256L904.688,932.561C906.59,926.804 911,922.221 916.679,920.099C926.589,916.397 935.813,911.071 943.974,904.341C948.651,900.483 954.825,898.956 960.761,900.187C960.761,900.187 994.477,907.181 994.477,907.181C998.477,901.36 1002.01,895.235 1005.05,888.86L982.14,863.158C978.105,858.633 976.341,852.522 977.343,846.543C979.091,836.11 979.091,825.459 977.343,815.026C976.341,809.047 978.105,802.936 982.14,798.411C982.14,798.411 1005.05,772.709 1005.05,772.709C1002.01,766.335 998.477,760.209 994.477,754.389L960.761,761.383C954.825,762.614 948.651,761.086 943.974,757.229C935.813,750.498 926.589,745.173 916.679,741.47C911,739.349 906.59,734.765 904.688,729.009L893.887,696.313ZM883.31,757.158C923.946,757.158 956.937,790.149 956.937,830.785C956.937,871.42 923.946,904.412 883.31,904.412C842.674,904.412 809.683,871.42 809.683,830.785C809.683,790.149 842.674,757.158 883.31,757.158ZM883.31,797.158C864.751,797.158 849.683,812.226 849.683,830.785C849.683,849.344 864.751,864.412 883.31,864.412C901.869,864.412 916.937,849.344 916.937,830.785C916.937,812.226 901.869,797.158 883.31,797.158Z" style="fill:rgb(192,132,252);"/>
                    </g>
                </g>
                <g id="Open">
                    <g transform="matrix(0.988125,-0.153652,0.153652,0.988125,-92.6142,497.69)">
                        <path d="M612.752,414.417L612.755,414.399C614.319,403.074 617.1,391.317 621.202,379.208C621.219,379.158 621.236,379.108 621.254,379.058C642.929,316.699 705.583,287.576 764.273,287.576C857.693,287.576 899.91,355.117 909.048,409.366L912.08,406.88L920.961,403.785L926.073,403.523L931.434,404.387L931.989,404.54C932.335,404.635 932.679,404.74 933.019,404.854C933.019,404.854 974.915,418.876 974.914,418.876C989.032,418.097 1002.75,419.574 1015.32,423.041C1050.44,432.728 1078.94,457.158 1092.88,488.192C1110.76,451.897 1150.23,424.424 1212.42,434.095C1239.04,438.234 1256.7,448.747 1268.64,461.131C1275.52,468.266 1280.49,476.151 1284.04,484.118L1284.99,482.987L1293.13,478.28L1298.1,477.063L1303.53,476.905L1304.1,476.951C1304.46,476.98 1304.81,477.018 1305.17,477.066C1305.17,477.066 1334.69,481.041 1334.69,481.041C1346.52,479.74 1357.72,479.533 1368.54,480.404C1438.82,486.06 1487.4,534.497 1482.08,600.62L1481.32,610.093C1480.51,620.186 1481.57,628.665 1488.4,636.108L1487.67,635.351L1492.45,641.009L1495.93,647.625L1497.49,653.901L1497.6,659.077C1497.52,660.131 1491.5,697.889 1491.43,698.792L1490.09,705.087L1487.17,710.887L1483.11,715.574L1479.26,718.437L1478.66,719.013C1473.59,722.475 1448.44,737.641 1448.44,737.641L1449.32,737.075L1438.88,741.908L1427.94,742.929C1425.38,742.723 1416.57,740.653 1406.2,734.34C1389.73,724.313 1366.97,703.451 1363.86,667.715C1362.1,679.162 1358.42,702.879 1358.42,702.879L1358.6,701.393L1357.58,706.702L1355.61,711.379L1349.67,718.691L1341.5,723.391L1336.57,724.585L1331.16,724.74L1330.59,724.693C1330.26,724.667 1329.93,724.632 1329.6,724.588L1272.41,717.097C1272.19,717.068 1271.98,717.036 1271.76,717L1262.63,713.726L1255.14,707.13L1250.74,698.303L1249.84,688.884C1249.87,688.54 1249.91,688.196 1249.95,687.853L1259.27,617.763C1254.48,620.155 1248.87,622.015 1242.29,623.164C1240.48,623.48 1238.57,623.762 1236.57,624.009C1235.96,628.258 1235.46,631.658 1235.4,632.073L1232.32,641.012C1229,647.924 1220.84,662.066 1215.85,669.847C1215.68,670.117 1215.5,670.383 1215.31,670.645L1208.75,677.837L1202,682.239L1191.47,685.368L1180.38,685.146L1176.97,684.615C1128.26,677.041 1098.27,650.794 1084.5,619.41C1074.54,640.111 1059.38,655.378 1040.91,664.889C1017.42,676.986 988.146,679.803 956.468,671.066C951.326,669.647 946.309,667.961 941.466,666.025L926.148,712.05C926.083,712.246 926.015,712.441 925.943,712.635L921.014,720.988L913.129,727.106L903.633,729.774L894.214,728.882C893.861,728.785 893.511,728.678 893.164,728.561L838.479,710.193L839.53,710.514L834.479,708.504L830.194,705.63L824.055,698.154L821.104,689.036L820.955,684.026L821.824,678.908L821.977,678.353C821.995,678.287 822.014,678.222 822.032,678.157L822.706,673.235L822.859,672.679C822.877,672.614 822.896,672.548 822.915,672.483L823.588,667.561L823.742,667.006C823.76,666.94 823.778,666.875 823.797,666.809L824.471,661.887L824.624,661.332C824.642,661.267 824.66,661.201 824.679,661.136L825.353,656.214L825.506,655.659C825.524,655.593 825.543,655.528 825.561,655.462L826.235,650.54L826.388,649.985C826.406,649.919 826.425,649.854 826.444,649.789L827.117,644.867L827.271,644.311C827.289,644.246 827.307,644.18 827.326,644.115L828,639.193L828.153,638.638C828.242,638.313 828.34,637.99 828.446,637.67L846.94,581.81C817.038,604.131 780.223,616.124 748.305,616.124C671.85,616.124 605.041,559.525 605.041,476.028C605.041,467.083 605.838,457.816 607.487,448.278C608.094,444.183 612.083,418.528 612.752,414.417ZM790.912,458.612L790.912,458.61C787.598,443.525 777.649,429.212 756.945,429.212C743.147,429.212 734.01,435.276 728.478,443.499C733.147,461.149 748.071,472.76 764.273,472.76C776.166,472.76 785.212,467.091 790.912,458.612Z" style="fill:rgb(80,7,36);"/>
                    </g>
                    <g transform="matrix(0.988125,-0.153652,0.153652,0.988125,-92.6142,497.69)">
                        <path d="M632.531,417.395C633.925,407.173 636.441,396.561 640.145,385.624C658.865,331.768 713.585,307.576 764.273,307.576C856.433,307.576 890.993,383.608 890.993,431.704C890.993,438.849 890.358,445.719 889.159,452.306C888.912,454.22 884.206,484.479 883.866,486.347C874.812,556.31 802.991,596.124 748.305,596.124C682.641,596.124 625.041,547.74 625.041,476.028C625.041,468.107 625.761,459.898 627.238,451.437C627.494,449.559 632.199,419.299 632.531,417.395ZM811.755,462.297C808.871,436.154 792.895,409.212 756.945,409.212C730.795,409.212 715.373,423.215 707.498,440.12C711.482,471.866 737.027,492.76 764.273,492.76C786.905,492.76 803.258,480.201 811.755,462.297ZM847.255,647.501C847.013,646.551 847,645.524 847.28,644.511L847.433,643.955L919.032,427.688C920.152,424.711 923.34,422.901 926.116,423.667L926.671,423.82L972.347,439.107C985.511,437.957 998.339,439.105 1010,442.322C1056.58,455.168 1089.71,499.051 1080.64,546.893C1080.41,548.777 1074,589.404 1072.82,593.679C1058.88,644.208 1014.26,666.258 961.785,651.785C950.125,648.569 939.201,643.764 929.848,637.599L907.171,705.734C905.975,708.989 902.864,710.521 899.532,709.602L844.848,691.234C842.071,690.468 840.262,687.28 841.104,684.226L841.257,683.671L841.962,681.542C841.719,680.593 841.707,679.565 841.986,678.552L842.139,677.997L842.844,675.869C842.602,674.919 842.589,673.892 842.869,672.879L843.022,672.323L843.726,670.195C843.484,669.246 843.471,668.218 843.751,667.205L843.904,666.65L844.609,664.521C844.366,663.572 844.354,662.545 844.633,661.532L844.786,660.976L845.491,658.848C845.248,657.899 845.236,656.871 845.515,655.858L845.668,655.303L846.373,653.174C846.13,652.225 846.118,651.197 846.397,650.184L846.551,649.629L847.255,647.501ZM1002.3,551.339C998.055,542.959 990.041,536.492 979.452,533.572C975.01,532.347 970.061,531.878 964.958,531.964L958.449,551.34C962.843,554.288 967.966,556.802 973.243,558.258C974.951,558.729 991.099,563.182 1002.3,551.339ZM1096.58,562.396C1096.73,561.452 1102.61,523.627 1102.76,522.681C1109.09,481.986 1144.47,443.769 1209.35,453.858C1279.93,464.832 1273.28,528.211 1271.82,537.603C1271.67,538.513 1265.75,576.612 1265.64,577.318C1263.61,590.408 1256.52,600.382 1238.84,603.462C1233.2,604.453 1226.37,605.023 1219.25,605.24C1219.25,605.586 1215.8,627.954 1215.63,629C1215.19,631.846 1204.78,650.046 1199.01,659.058C1196.03,663.258 1191.71,666.667 1183.45,665.383L1180.04,664.852C1115.44,654.807 1089.86,605.652 1096.58,562.396ZM1177.74,567.147C1177.91,566.104 1181.57,543.215 1181.85,542.724C1175.88,543.144 1170.25,545.887 1165.85,550.525C1168.19,556.603 1172.07,562.375 1177.74,567.22C1177.74,567.191 1177.74,567.167 1177.74,567.147ZM1289.54,541.835C1289.61,541.484 1295.72,502.12 1295.72,502.12C1296.26,498.985 1299.05,496.61 1301.92,496.841L1302.5,496.887L1334.51,501.197C1345.89,499.801 1356.61,499.508 1366.94,500.34C1425.22,505.03 1466.56,544.184 1462.15,599.015L1461.38,608.489C1460.09,624.565 1462.78,637.783 1473.67,649.639C1475.28,651.213 1477.92,654.315 1477.67,657.473C1477.58,658.527 1471.57,696.285 1471.49,697.188C1471.35,698.91 1470.35,700.563 1468.23,701.837C1468.18,702.411 1438.12,720.506 1438.12,720.506C1435.07,722.572 1432.13,723.202 1429.54,722.994C1424.38,722.578 1379.67,703.667 1383.78,652.568L1384.57,642.807C1386.96,613.082 1373.74,599.241 1353.37,596.145L1344.84,660.073C1344.8,660.541 1338.66,699.789 1338.66,699.789C1338.43,702.659 1335.64,705.035 1332.77,704.804L1332.2,704.758L1275.01,697.266C1271.59,696.702 1269.5,693.934 1269.78,690.489L1289.54,541.835Z" style="fill:rgb(190,24,93);"/>
                    </g>
                    <g transform="matrix(1,0,0,1,-43.4435,390.084)">
                        <g transform="matrix(0.988125,-0.153652,0.153652,0.988125,-49.1707,107.606)">
                            <path d="M890.993,431.704C890.993,383.608 856.433,307.576 764.273,307.576C713.585,307.576 658.865,331.768 640.145,385.624C634.097,403.48 631.217,420.472 631.217,436.312C631.217,508.024 688.817,556.408 754.481,556.408C812.945,556.408 890.993,510.904 890.993,431.704ZM764.273,492.76C734.609,492.76 706.961,467.992 706.961,431.416C706.961,405.208 721.361,369.496 763.121,369.496C803.153,369.496 818.417,402.904 818.417,431.416C818.417,463.96 798.545,492.76 764.273,492.76Z" style="fill:rgb(251,113,133);fill-rule:nonzero;"/>
                        </g>
                        <g transform="matrix(0.988125,-0.153652,0.153652,0.988125,-49.1707,107.606)">
                            <path d="M658.955,513.568C645.897,498.25 636.678,479.342 632.996,457.701L714.963,397.795C709.338,408.549 706.961,420.767 706.961,431.416C706.961,446.421 711.614,459.439 719.15,469.574L658.955,513.568ZM752.552,370.323L821.848,319.678C842.275,329.346 857.63,343.956 868.616,360.337L812.433,401.398C804.743,383.652 789.179,369.496 763.121,369.496C759.381,369.496 755.862,369.783 752.552,370.323ZM816.987,416.323L876.142,373.089C881.54,383.546 885.366,394.366 887.782,404.821L813.016,459.464C816.564,450.939 818.417,441.352 818.417,431.416C818.417,426.466 817.957,421.368 816.987,416.323ZM767.582,492.669L697.945,543.564C687.488,538.487 677.836,531.996 669.311,524.252L729.459,480.292C739.38,488.271 751.644,492.76 764.273,492.76C765.391,492.76 766.495,492.73 767.582,492.669Z" style="fill:rgb(254,205,211);"/>
                        </g>
                        <g transform="matrix(0.993411,0.114605,-0.114605,0.993411,47.4331,-108.207)">
                            <path d="M979.985,630.424C983.441,630.424 986.033,628.12 986.321,624.664L990.065,552.952C1000.72,556.408 1012.53,558.136 1024.62,558.136C1079.06,558.136 1116.21,525.016 1116.21,472.6C1116.21,420.184 1070.7,383.32 1020.02,383.32C1007.92,383.32 995.249,385.624 982.865,390.232L934.769,387.64L934.193,387.64C931.313,387.64 928.721,390.232 928.433,393.4L916.913,620.92L916.913,621.496C916.913,624.664 919.505,627.256 922.385,627.256L979.985,630.424ZM995.825,441.784C1000.72,440.344 1005.62,439.48 1010.23,439.48C1030.38,439.48 1045.36,453.304 1045.36,473.176C1045.36,504.856 1017.71,504.856 1015.41,504.856C1007.35,504.856 998.993,502.552 992.657,499.384L995.825,441.784Z" style="fill:rgb(251,113,133);fill-rule:nonzero;"/>
                        </g>
                        <g transform="matrix(1,0,0,1,-17.5818,-14.5051)">
                            <path d="M1240.05,557.56C1248.4,557.56 1252.14,553.528 1254.45,548.92C1258.77,539.128 1266.26,519.544 1266.26,516.664C1266.26,511.768 1261.36,509.176 1257.33,509.176L1256.75,509.176C1254.74,509.464 1252.43,509.464 1250.42,509.464C1214.42,509.464 1199.44,486.424 1199.44,465.976C1199.44,448.12 1210.96,436.024 1224.79,436.024C1236.88,436.024 1242.35,445.24 1242.35,447.832C1242.35,451.864 1203.27,460.514 1188.3,463.97C1184.55,464.834 1182.25,466.274 1182.25,469.442C1182.25,470.594 1187.72,489.314 1191.18,498.818C1192.33,502.274 1193.77,504.29 1198.38,504.29C1213.35,503.714 1271.73,492.472 1285.27,487.864C1302.26,482.104 1307.73,471.16 1307.73,457.912C1307.73,448.408 1304.56,384.76 1233.14,384.76C1167.47,384.76 1138.38,427.96 1138.38,469.144C1138.38,512.92 1171.22,557.56 1236.59,557.56L1240.05,557.56Z" style="fill:rgb(251,113,133);fill-rule:nonzero;"/>
                        </g>
                        <g transform="matrix(0.997266,-0.0738892,0.0738892,0.997266,-61.1926,114.263)">
                            <path d="M1517.97,474.04C1517.97,419.032 1473.62,383.32 1415.15,383.32C1404.79,383.32 1394.13,384.472 1382.9,386.776L1350.64,385.048L1350.07,385.048C1347.18,385.048 1344.59,387.64 1344.31,390.808L1336.53,540.568C1336.53,544.024 1338.83,546.616 1342.29,546.904L1399.89,549.784L1400.46,549.784C1403.35,549.784 1405.94,547.192 1405.94,544.312L1411.41,439.768C1432.43,440.92 1447.12,453.592 1447.12,483.832L1447.12,493.624C1447.12,544.888 1493.2,560.152 1498.38,560.152C1500.98,560.152 1503.86,559.288 1506.74,556.984C1506.74,556.984 1535.25,536.536 1535.25,535.96C1537.27,534.52 1538.13,532.792 1538.13,531.064C1538.13,527.896 1535.25,525.016 1533.52,523.576C1521.71,512.632 1517.97,499.672 1517.97,483.544L1517.97,474.04Z" style="fill:rgb(251,113,133);fill-rule:nonzero;"/>
                        </g>
                        <g transform="matrix(0.997266,-0.0738892,0.0738892,0.997266,-61.1926,114.263)">
                            <path d="M1336.98,531.794L1341.07,453.028L1421.76,383.474C1446.18,384.621 1467.83,392.129 1484.38,404.732L1434.2,447.993C1428.18,442.845 1420.37,440.26 1411.41,439.768L1409.88,468.954L1336.98,531.794Z" style="fill:rgb(254,205,211);"/>
                        </g>
                    </g>
                </g>
                <g id="EUICC">
                    <g transform="matrix(0.994815,-0.101704,0.101704,0.994815,-618.445,822.813)">
                        <path d="M1529.66,323.25L1530.24,318.097L1531.91,313.067L1537.48,304.991L1545.56,299.416L1550.59,297.742L1556.23,297.117L1555.14,297.147L1607.55,294.267C1607.92,294.247 1608.28,294.237 1608.65,294.237L1609.28,294.237L1685.36,290.232C1685.71,290.214 1686.06,290.205 1686.41,290.205L1686.99,290.205L1692.62,290.829L1697.63,292.486L1705.57,297.875L1711.07,305.392L1713.83,315.168C1713.85,315.415 1713.87,315.662 1713.88,315.91L1716.18,366.022C1716.23,366.997 1716.2,367.974 1716.1,368.945L1712.25,407.169L1712.35,405.165L1711.73,410.803L1710.07,415.805L1704.68,423.745L1702.17,425.582L1701.8,454.178C1701.8,454.566 1701.78,454.954 1701.75,455.342C1701.74,455.569 1701.35,459.409 1700.84,464.369L1704.27,464.726L1709.3,466.307L1717.59,471.827L1720.39,475.797L1750.15,343.037C1750.23,342.693 1750.31,342.351 1750.41,342.011L1750.56,341.457L1755.18,332.244L1762.58,325.657L1771.65,322.228L1781.57,322.274C1781.79,322.317 1782.01,322.364 1782.23,322.414L1839.3,335.429C1839.62,335.502 1839.94,335.583 1840.26,335.671L1840.81,335.827L1845.81,337.802L1850.15,340.632L1856.52,348.037L1859.79,356.937L1859.72,366.648C1859.81,366.106 1859.92,365.462 1859.92,365.462C1859.92,365.462 1859.88,365.868 1859.84,366.203C1859.15,372.715 1856,403.718 1855.87,404.404C1855.83,404.61 1855.79,404.814 1855.74,405.018C1840.04,474.681 1834.97,497.588 1832.54,508.606C1834.98,512.172 1839.03,514.495 1843.31,515.695C1852.53,518.282 1863.62,514.988 1867.93,503.383C1867.94,503.366 1867.95,503.349 1867.95,503.332C1872.56,491.026 1877.62,473.928 1882.81,455.42C1889.74,430.734 1896.6,403.073 1902.51,377.805C1902.57,377.52 1902.65,377.236 1902.73,376.954L1902.88,376.4L1904.79,371.384L1907.74,366.67L1911.59,362.679L1915.93,359.72L1921.17,357.555L1925.98,356.587L1932.13,356.545L1937.33,357.512L1992.79,373.066L1997.92,375.104L2002.36,378.011L2006.47,382.81L2009.04,357.694L2010.17,352.278L2012.29,347.386L2018.84,339.595L2027.79,334.762L2033.01,333.671L2038.55,333.659L2101.87,340.132L2107.28,341.264L2112.17,343.389L2119.96,349.934L2124.8,358.887L2125.89,364.108L2125.9,369.642L2115.53,471.116C2143.21,409.347 2206.89,385.97 2270.03,392.426C2299.72,395.461 2326.88,405.708 2345.87,421.131C2346.07,421.298 2346.28,421.47 2346.47,421.646L2350.73,426.445L2354.33,433.635L2355.74,439.783L2355.83,446.488C2355.81,446.624 2355.65,448.219 2355.39,450.706C2394.87,378.213 2471.61,366.264 2538.55,390.564C2566.6,400.747 2590.44,417.309 2605.09,436.895C2605.25,437.108 2605.4,437.324 2605.55,437.543L2608.8,444.04L2610.14,450.046L2610.27,455.837C2610.27,455.837 2609.5,460.324 2609.5,460.335C2608.32,472.137 2605.17,500.328 2604.72,501.565L2600.54,509.227C2600.46,509.325 2600.38,509.423 2600.3,509.52L2569.61,546.79C2569.54,546.883 2569.46,546.976 2569.38,547.068L2563.29,552.297L2557.1,555.157L2557.72,555.483L2562.91,560.182L2567.64,567.768L2569.47,574.713L2569.34,573.79C2569.34,573.79 2576.42,617.086 2576.45,617.261L2577.04,625.138C2577.04,625.138 2576.38,629.107 2576.38,629.115C2575.36,639.604 2571.95,670.32 2571.52,671.508L2568.53,677.46L2564.22,682.586L2554.28,689.179C2508.17,710.726 2463.62,711.215 2426.71,697.818C2400.61,688.344 2378.3,671.989 2361.82,651.186L2361.22,657.045L2359.78,663.547L2356.85,669.569L2348.81,678.388C2309.35,710.528 2266.26,721.867 2227.21,717.875C2166.55,711.673 2115.4,668.929 2101.42,609.116L2099.18,631.051L2098.04,636.468L2095.92,641.36L2089.37,649.151L2080.42,653.983L2075.2,655.075L2069.66,655.087L2006.35,648.614L2000.93,647.482L1996.04,645.357L1988.25,638.812L1983.42,629.858L1982.32,624.637L1982.31,619.104L1994.61,498.787C1992.33,507.533 1989.89,516.562 1987.37,525.565C1981.93,544.968 1976.1,564.57 1970.05,580.691C1942.99,654.487 1869.67,675.445 1808.25,658.22C1770.35,647.591 1737.45,622.729 1722.23,587.267L1722,588.508L1716.83,596.917L1708.76,603.114L1703.78,605.045L1698.39,605.978C1698.27,605.986 1698.15,605.994 1698.04,606L1623.16,610.032C1623,610.04 1622.84,610.047 1622.68,610.052L1620.93,610.349L1621.95,610.323L1565.79,613.203C1565.45,613.22 1565.11,613.229 1564.77,613.229L1564.19,613.229L1558.49,612.587L1553.36,610.839L1545.34,605.142L1540.11,597.538L1537.64,588.266C1537.62,588.062 1537.61,587.859 1537.6,587.655L1525.79,363.015C1525.74,361.986 1525.76,360.955 1525.87,359.931L1529.71,322.283L1529.66,323.25ZM2332.02,549.385C2332.09,548.761 2332.16,548.136 2332.23,547.51C2332.45,545.229 2333.61,533.848 2334.54,524.786L2328.96,536.557C2328.91,536.666 2328.86,536.775 2328.8,536.883L2324.18,543.44L2321.07,545.949L2321.51,545.913L2328.84,547.691L2332.02,549.385ZM2533.29,552.067L2533.05,551.946C2533.05,551.946 2527.22,546.283 2527.4,546.524C2522.66,540.295 2512.51,533.182 2501.15,529.058C2490.46,525.177 2480.78,524.606 2472.69,528.046C2466.84,530.534 2462.07,535.044 2458.31,541.082C2462.57,548.738 2470.22,554.495 2479.36,557.815C2493.84,563.071 2512.48,562.197 2530.54,553.069C2530.72,552.977 2530.91,552.887 2531.09,552.8L2533.29,552.067ZM1622.69,610.051C1624.08,610.004 1626,609.79 1627.83,609.179L1622.69,610.051ZM2301.84,552.027L2301.48,552.057L2294.76,550.474C2294.76,550.474 2287.72,546.405 2287.96,546.595C2281.85,541.707 2270.27,537.286 2258.24,536.056C2242.55,534.452 2230.31,539.236 2223.53,549.756C2228.51,561.063 2240.18,567.707 2253.42,569.061C2268.73,570.626 2286.56,565.249 2301.84,552.027Z" style="fill:rgb(46,16,101);"/>
                    </g>
                    <g transform="matrix(0.994815,-0.101704,0.101704,0.994815,-618.445,822.813)">
                        <path d="M2002.21,621.138L2028.93,359.728C2029.31,356.004 2032.79,353.174 2036.51,353.555L2099.83,360.028C2103.55,360.409 2106.38,363.883 2106,367.608L2079.28,629.017C2078.9,632.742 2075.42,635.571 2071.7,635.191L2008.38,628.717C2004.66,628.336 2001.83,624.863 2002.21,621.138ZM1545.76,361.965L1549.61,324.317L1549.61,323.741C1549.61,320.285 1552.78,317.117 1556.23,317.117L1608.65,314.237L1609.8,314.237L1686.41,310.205L1686.99,310.205C1690.44,310.205 1693.61,313.373 1693.9,316.829L1696.2,366.941L1692.35,405.165C1692.35,408.621 1689.18,411.789 1685.73,412.077L1682.35,412.251L1681.8,453.917C1681.76,454.559 1678.62,485.045 1678.61,485.206L1698.22,484.157L1698.79,484.157C1702.54,484.157 1705.71,487.325 1705.71,490.781L1707.72,540.893C1707.72,541.708 1703.87,578.541 1703.87,578.541C1703.87,582.285 1700.99,585.741 1696.96,586.029L1622.08,590.061C1621.79,590.061 1621.22,590.349 1620.93,590.349L1564.77,593.229L1564.19,593.229C1560.74,593.229 1557.86,590.061 1557.57,586.605L1545.76,361.965ZM1737.5,495.591C1737.93,490.61 1738.72,485.491 1739.89,480.242L1769.66,347.412L1769.82,346.858C1770.83,343.253 1774.38,341.257 1777.79,341.913L1834.86,354.928L1835.41,355.084C1838.74,356.017 1840.73,359.568 1840.08,362.973C1839.98,363.389 1836.37,399.892 1836.23,400.621C1816.75,487.073 1813.63,501.561 1811.61,510.641C1815.31,523.002 1825.75,531.543 1837.91,534.952C1856.21,540.085 1878.13,533.372 1886.68,510.346C1891.45,497.624 1896.7,479.955 1902.07,460.821C1909.07,435.864 1916.02,407.901 1921.98,382.355L1922.14,381.801C1923.77,375.977 1929.15,375.991 1931.92,376.769L1987.38,392.323C1990.99,393.334 1993.18,397.24 1992.45,400.923C1992.37,401.306 1988.75,437.82 1988.6,438.571C1984.58,457.184 1976.9,488.83 1968.11,520.165C1962.82,539.021 1957.18,558.077 1951.28,573.771C1928.32,636.428 1865.78,653.585 1813.65,638.963C1766.18,625.65 1727.35,586.23 1734,529.817C1734.1,528.683 1737.36,496.739 1737.5,495.591ZM2118.35,562.156C2118.41,561.55 2122.15,525.047 2122.2,524.508C2131.08,437.697 2200.1,405.381 2268,412.323C2293.5,414.929 2316.95,423.407 2333.26,436.654C2335.11,438.291 2336.22,441.589 2335.93,444.454C2335.86,445.139 2331.94,483.535 2331.56,484.365L2310.89,527.993C2309.8,530.197 2306.67,532.483 2303.51,532.16C2302.37,532.043 2301.25,531.64 2300.45,530.979C2292.16,524.341 2276.61,517.83 2260.28,516.16C2231.63,513.231 2211.11,525.354 2202.07,547.952C2206.98,571.507 2227.03,586.467 2251.39,588.957C2271.44,591.007 2294.99,584.44 2315,567.089C2316.26,566.06 2318.04,565.663 2319.47,565.809C2322.34,566.102 2325.31,568.144 2326.22,570.553L2343.79,611.141C2344.73,613.264 2345.38,615.358 2345.18,617.363C2345.12,617.946 2341.39,654.456 2341.33,655.011C2341.07,657.59 2339.66,660.051 2336.18,662.881C2301.44,691.174 2263.62,701.493 2229.24,697.978C2163.63,691.271 2110.91,634.929 2118.35,562.156ZM2355.61,515.419C2356.56,504.634 2358.96,493.637 2362.97,482.606C2392.74,400.58 2467.56,386.072 2531.72,409.364C2555.82,418.11 2576.49,432.051 2589.07,448.874C2590.36,450.748 2590.7,453.826 2589.98,456.412C2590.05,457.555 2586.38,493.465 2585.92,494.74C2585.62,495.552 2585.43,496.093 2584.86,496.807L2554.17,534.077C2552.58,535.947 2548.98,537.401 2546.01,536.32C2544.92,535.927 2543.94,535.263 2543.32,534.427C2536.9,525.966 2523.41,515.86 2507.98,510.259C2475.6,498.505 2449.24,510.468 2436.39,539.959C2441.03,556.869 2454.59,570.098 2472.54,576.614C2491.49,583.494 2515.92,582.866 2539.56,570.919C2541.03,570.229 2542.86,570.278 2544.21,570.769C2546.92,571.752 2549.3,574.457 2549.6,577.016L2556.74,620.662C2557.11,622.803 2557.24,624.857 2556.69,626.664C2556.75,627.869 2553.14,663.515 2552.72,664.683C2551.83,667.12 2549.87,669.163 2545.81,671.06C2505.22,690.028 2466.02,690.812 2433.54,679.019C2380.44,659.742 2345.39,607.458 2352.11,549.644C2352.21,548.506 2355.48,516.562 2355.61,515.419Z" style="fill:rgb(91,33,182);"/>
                    </g>
                    <g transform="matrix(1,0,0,1,-45.5223,-53.0944)">
                        <g transform="matrix(0.994815,-0.101704,0.101704,0.994815,-572.922,875.907)">
                            <path d="M1700.81,548.381C1704.84,548.093 1707.72,544.637 1707.72,540.893L1705.71,490.781C1705.71,487.325 1702.54,484.157 1698.79,484.157L1698.22,484.157L1628.23,487.901L1626.79,461.117L1674.6,461.117C1678.63,461.117 1681.51,457.949 1681.8,453.917L1682.38,409.853L1682.38,409.277C1682.38,405.533 1678.92,402.653 1675.47,402.653L1623.91,402.653L1622.47,377.885L1689.58,374.429C1693.03,374.141 1696.2,370.973 1696.2,367.517L1696.2,366.941L1693.9,316.829C1693.61,313.373 1690.44,310.205 1686.99,310.205L1686.41,310.205L1609.8,314.237L1608.65,314.237L1556.23,317.117C1552.78,317.117 1549.61,320.285 1549.61,323.741L1549.61,324.317L1561.42,548.957C1561.71,552.413 1564.59,555.581 1568.04,555.581L1568.62,555.581L1624.78,552.701C1625.07,552.701 1625.64,552.413 1625.93,552.413L1700.81,548.381Z" style="fill:rgb(192,132,252);fill-rule:nonzero;"/>
                        </g>
                        <g transform="matrix(0.98532,0.170719,-0.170719,0.98532,-440.459,422.474)">
                            <path d="M1908.79,310.456C1905.9,310.456 1900.72,311.896 1900.72,317.944L1900.72,318.52C1901.87,344.728 1902.74,373.528 1902.74,399.448C1902.74,419.32 1902.45,437.752 1901.3,451.288C1899.28,475.768 1879.99,488.152 1860.98,488.152C1842.55,488.152 1824.69,476.632 1823.54,453.304C1822.1,421.336 1823.54,455.32 1816.62,321.976C1816.34,318.52 1813.46,315.64 1810,315.64L1809.42,315.64L1750.96,318.52C1747.51,318.808 1744.62,321.688 1744.62,325.432L1744.62,326.008L1751.83,461.944C1755.28,526.168 1806.55,557.56 1859.25,557.56C1913.39,557.56 1968.98,524.152 1974.16,457.624C1975.6,440.92 1975.89,421.048 1975.89,401.464C1975.89,368.92 1974.74,336.376 1973.59,317.368C1973.3,313.624 1970.13,310.456 1966.38,310.456L1908.79,310.456Z" style="fill:rgb(192,132,252);fill-rule:nonzero;"/>
                        </g>
                        <g transform="matrix(1,0,0,1,-537.877,707.46)">
                            <path d="M2090.51,551.8C2094.26,551.8 2097.43,548.632 2097.43,544.888L2097.43,319.96C2097.43,316.216 2094.26,313.048 2090.51,313.048L2026.87,313.048C2023.12,313.048 2019.95,316.216 2019.95,319.96L2019.95,544.888C2019.95,548.632 2023.12,551.8 2026.87,551.8L2090.51,551.8Z" style="fill:rgb(192,132,252);fill-rule:nonzero;"/>
                        </g>
                        <g transform="matrix(1,0,0,1,-542.093,747.563)">
                            <path d="M2341.36,459.352C2340.21,457.048 2337.04,455.32 2334.16,455.32C2332.72,455.32 2330.99,455.896 2329.84,457.048C2311.7,476.344 2288.95,485.272 2268.78,485.272C2238.55,485.272 2212.91,465.688 2212.91,431.704C2212.91,396.568 2233.94,374.104 2270.22,374.104C2286.64,374.104 2302.77,379 2311.7,384.76C2312.56,385.336 2313.71,385.624 2314.87,385.624C2318.03,385.624 2320.91,383.032 2321.78,380.728L2337.91,335.224C2338.19,334.36 2338.19,333.784 2338.19,332.92C2338.19,330.04 2336.75,326.872 2334.74,325.432C2317.17,313.912 2292.98,307.864 2267.35,307.864C2199.09,307.864 2133.71,347.032 2133.71,434.296C2133.71,507.448 2191.89,558.136 2257.84,558.136C2292.4,558.136 2328.98,544.024 2360.66,512.344C2363.83,509.176 2364.98,506.584 2364.98,503.992C2364.98,501.976 2364.11,499.96 2362.96,497.944L2341.36,459.352Z" style="fill:rgb(192,132,252);fill-rule:nonzero;"/>
                        </g>
                        <g transform="matrix(0.969808,0.24387,-0.24387,0.969808,-375.869,113.966)">
                            <path d="M2588.18,459.352C2587.03,457.048 2583.86,455.32 2580.98,455.32C2579.54,455.32 2577.81,455.896 2576.66,457.048C2558.51,476.344 2535.76,485.272 2515.6,485.272C2485.36,485.272 2459.73,465.688 2459.73,431.704C2459.73,396.568 2480.75,374.104 2517.04,374.104C2533.46,374.104 2549.59,379 2558.51,384.76C2559.38,385.336 2560.53,385.624 2561.68,385.624C2564.85,385.624 2567.73,383.032 2568.59,380.728L2584.72,335.224C2585.01,334.36 2585.01,333.784 2585.01,332.92C2585.01,330.04 2583.57,326.872 2581.55,325.432C2563.99,313.912 2539.79,307.864 2514.16,307.864C2445.91,307.864 2380.53,347.032 2380.53,434.296C2380.53,507.448 2438.7,558.136 2504.66,558.136C2539.22,558.136 2575.79,544.024 2607.47,512.344C2610.64,509.176 2611.79,506.584 2611.79,503.992C2611.79,501.976 2610.93,499.96 2609.78,497.944L2588.18,459.352Z" style="fill:rgb(192,132,252);fill-rule:nonzero;"/>
                        </g>
                    </g>
                </g>
                <path d="M988.333,1002.5C988.379,1003.47 988.508,1005.49 988.818,1007.18C989.725,1012.13 991.45,1018.87 993.403,1028.25C994.303,1032.57 991.525,1036.81 987.202,1037.71C982.88,1038.61 978.639,1035.83 977.739,1031.51C974.599,1016.43 972.184,1007.68 972.265,1002.27C972.315,998.949 973.077,996.344 974.363,994.171L977.247,990.719C978.213,989.878 979.348,989.105 980.697,988.415C983.011,987.231 987.42,986.061 992.612,985.228C1002.58,983.629 1015.86,982.795 1017.84,982.672C1022.25,982.398 1026.05,985.753 1026.32,990.16C1026.6,994.567 1023.24,998.367 1018.83,998.641C1016.97,998.757 1004.5,999.525 995.145,1001.03C992.296,1001.48 989.786,1001.89 988.333,1002.5Z" style="fill:rgb(233,213,255);"/>
                <path d="M1195.95,1039.37C1195.02,1043.68 1190.77,1046.44 1186.45,1045.51C1182.13,1044.59 1179.38,1040.33 1180.3,1036.02C1180.85,1033.44 1184.24,1017.62 1186.73,1003.7C1187.37,1000.08 1190.41,997.365 1194.08,997.125C1204.16,996.469 1204.01,996.191 1214,997.195C1218.39,997.636 1221.6,1001.56 1221.16,1005.96C1220.71,1010.35 1216.79,1013.56 1212.4,1013.11C1206.5,1012.52 1204.67,1012.46 1201.35,1012.66C1199.02,1024.99 1196.43,1037.12 1195.95,1039.37Z" style="fill:rgb(233,213,255);"/>
                <path d="M1289.49,1196.2C1285.4,1197.87 1280.73,1195.9 1279.06,1191.81C1277.39,1187.73 1279.36,1183.05 1283.45,1181.38C1291.16,1178.24 1295.88,1176.49 1299.86,1172.93C1303.92,1169.3 1307.14,1163.9 1312.33,1154.03C1314.38,1150.12 1319.22,1148.61 1323.13,1150.66C1327.04,1152.72 1328.54,1157.56 1326.49,1161.47C1320.01,1173.81 1315.6,1180.32 1310.53,1184.86C1305.38,1189.46 1299.47,1192.13 1289.49,1196.2Z" style="fill:rgb(233,213,255);"/>
                <path d="M1463.37,993.495C1463.11,995.117 1462.65,998.235 1462.56,1000.72C1462.29,1008.23 1462.8,1016.95 1462.83,1021.2C1462.85,1025.62 1459.29,1029.22 1454.87,1029.25C1450.45,1029.27 1446.85,1025.7 1446.83,1021.29C1446.79,1014.44 1445.8,996.976 1447.92,988.886C1448.48,986.742 1449.26,985.008 1450.11,983.729L1452.06,981.477L1454.04,980.104C1457.58,978.226 1457.62,978.465 1473.31,975.976C1477.67,975.284 1481.77,978.263 1482.46,982.624C1483.15,986.985 1480.18,991.086 1475.82,991.778C1467.37,993.118 1465.03,993.073 1463.37,993.495Z" style="fill:rgb(233,213,255);"/>
                <path d="M1585.5,1098.21C1585.07,1102.6 1581.16,1105.82 1576.76,1105.4C1572.37,1104.97 1569.15,1101.05 1569.58,1096.66C1572.43,1067.37 1598.83,1046.25 1614.85,1037.04C1618.67,1034.84 1623.57,1036.16 1625.77,1039.99C1627.97,1043.82 1626.64,1048.72 1622.82,1050.91C1609.93,1058.32 1587.8,1074.63 1585.5,1098.21Z" style="fill:rgb(233,213,255);"/>
                <path d="M1740.17,1170.75C1743.74,1168.16 1748.75,1168.95 1751.34,1172.53C1753.93,1176.1 1753.14,1181.11 1749.56,1183.7C1735.58,1193.84 1735.59,1194.13 1721.98,1197.65C1717.71,1198.76 1713.34,1196.19 1712.23,1191.91C1711.12,1187.64 1713.7,1183.27 1717.97,1182.16C1728.96,1179.32 1728.88,1178.94 1740.17,1170.75Z" style="fill:rgb(233,213,255);"/>
                <path d="M1822.12,1050.48C1820.66,1054.65 1816.09,1056.85 1811.93,1055.39C1807.76,1053.93 1805.56,1049.36 1807.02,1045.19C1812.53,1029.48 1820.56,1007.67 1857.96,995.197C1862.15,993.8 1866.68,996.067 1868.08,1000.25C1869.48,1004.44 1867.21,1008.98 1863.02,1010.38C1833.01,1020.38 1826.54,1037.87 1822.12,1050.48Z" style="fill:rgb(233,213,255);"/>
                <path d="M1930.13,1172.93C1925.81,1173.86 1921.55,1171.1 1920.63,1166.78C1919.7,1162.46 1922.46,1158.21 1926.78,1157.29C1941.59,1154.11 1941.14,1153.31 1950.54,1149.02C1954.55,1147.19 1959.3,1148.96 1961.14,1152.97C1962.97,1156.99 1961.2,1161.74 1957.18,1163.57C1946.5,1168.46 1946.99,1169.32 1930.13,1172.93Z" style="fill:rgb(233,213,255);"/>
            </g>
        </g>
    </g>
</svg>
